# xmcd
#
# Track frame offsets:
#	150
#	14982
#	33022
#	49542
#	68197
#	80337
#	97840
#	117352
#	129897
#	148630
#	164030
#	179565
#	194757
#	212545
#	229545
#	244322
#	258477
#
# Disc length: 3692 seconds
#
# Revision: 0
# Processed by: cddbd v1.5.2PL0 Copyright (c) Steve Scherf et al.
# Submitted via: dBpowerAMP V4.0
#
DISCID=f00e6a11
DTITLE=SPC - MAXXIMUM
DYEAR=2006
DGENRE=Pagode
TTITLE0=A BARATA
TTITLE1=QUE SE CHAMA AMOR
TTITLE2=E BOM DEMAIS
TTITLE3=TA POR FORA
TTITLE4=MEU JEITO DE SER
TTITLE5=NOSSO SONHO NAO E ILUSAO
TTITLE6=NUNCA MAIS TE MACHUCAR
TTITLE7=TE AMAR SEM MEDO
TTITLE8=INTERFONE
TTITLE9=MINEIRINHO
TTITLE10=TEU OLHAR
TTITLE11=EU ME RENDO
TTITLE12=PRIMEIRO AMOR
TTITLE13=SAI DA MINHA ABA
TTITLE14=FEITO UM NENEM
TTITLE15=GO BACK
TTITLE16=O SAMBA NAO TEM FRONTEIRAS
EXTD=
EXTT0=
EXTT1=
EXTT2=
EXTT3=
EXTT4=
EXTT5=
EXTT6=
EXTT7=
EXTT8=
EXTT9=
EXTT10=
EXTT11=
EXTT12=
EXTT13=
EXTT14=
EXTT15=
EXTT16=
PLAYORDER=
